<svg version="1" xmlns="http://www.w3.org/2000/svg" width="1589.333" height="1589.333" viewBox="0 0 1192.000000 1192.000000"><path d="M559.5 33c-98.5 6.4-190 35.1-270.4 84.7-143.9 88.9-241.2 234-268.6 400.5-8.5 51.8-9.8 112.9-3.4 165.3 5.8 47.6 16.8 91.9 34.1 137.9 60.1 159.5 190.4 289.3 331.2 330 9.4 2.8 16.7 3.3 21.3 1.5 3.4-1.3 8-5.5 9.8-9 2.7-5.1 136.3-334.5 137-337.6.4-2 0-5.3-.9-8.7-2-6.9-6.9-11.2-16.3-14.4-53.1-18.2-88.8-59.7-101.6-118.3-4.4-19.8-5.2-28.2-5.2-51.9.1-25.3 1.4-33.8 8.1-53.1 19.4-55.8 68.1-97.9 127-109.8 38-7.7 73-3.6 107.1 12.4 41.3 19.5 73.8 55.5 88.6 98.2 7.8 22.1 10.4 43.6 8.7 69.3-2.3 35.1-9.5 61.8-22.4 83.8-7.5 12.7-12.7 19.2-24.3 30.3-15 14.4-33.8 26.1-56.7 35.3-11.1 4.5-13.9 6.6-16.6 12.2-1.7 3.5-2.1 5.7-1.8 9.7.4 3.8 18.5 51.4 66.2 174.2 36.2 92.9 66.4 170 67.2 171.2.7 1.2 3 3.4 5 4.9 5.7 4.4 12.9 4.4 27.9.1 57.6-16.7 110.9-46 165-90.8 5.5-4.5 20.6-18.9 33.5-31.8 30.7-30.8 50.5-55 73.3-89.6 67.6-103 101.2-224.1 96.6-348-.8-23.2-1.1-26.2-3.5-47-20.8-176.9-123.5-335.2-277.8-428.4C822.2 70.5 738.5 43.2 648 34.5c-19.4-1.9-69.9-2.7-88.5-1.5zM60.6 636c1 1.1 1.5 1.2 2.7.2 1.1-.9 1.6-1 1.9-.2.3 1 4.4 1.6 15.8 2.2 1.9.1 3.7.5 4 .9.3.3 1.6.9 3 1.3 2 .6 2.2.5 1-.4-1.2-.8-.8-.9 1.5-.4 1.7.4 3.6 1.2 4.4 1.8 1.2.9 1.3.8.7-.2-.6-1 0-.9 2.3.2 3.9 2 4.2 2.1 5.2.4.7-1 .9-1 .9-.1 0 .7 1.2 1.3 2.6 1.3 1.4 0 3.4.5 4.4 1 1.3.7 2.1.7 2.5 0 .4-.6 1.2-.7 1.8-.3.7.4 2.9.9 4.9 1 2 .1 4.6.6 5.7 1.2 2.7 1.5 4.4 1.4 3.5-.2-.6-.9-.5-.9.8 0 .8.7 1.8 1 2.1.6.4-.3.7-.2.7.4 0 .6 1.2 1 2.8 1.1 5.2.1 10.1.8 10.8 1.5.4.4 1.7.7 2.9.7 1.1 0 2.7.6 3.4 1.2 1.1 1 1.3 1 .7 0-.7-1.2.6-1.7 1.7-.5.4.3 1.9.7 3.4.9 8 .7 14.7 1.9 16.5 3 .7.5.8.3.3-.6-.6-1-.4-1.1 1.1-.6 1 .5 2.5.9 3.2.9.6 0 1.2.4 1.2.9 0 .4.5.8 1.1.8.5 0 .7-.6.3-1.3-.4-.6.3-.3 1.6.8s2 1.4 1.6.7c-.9-1.5.6-1.6 2.2 0 .9.9 1.2.9 1.2 0s.9-.7 2.7.5c1.5 1 2.4 1.2 2 .5-.5-.6-.4-1.2.2-1.2.5 0 1.3.5 1.6 1 .4.6 1.1.8 1.6.4.5-.3 1.7 0 2.6.8 1.2.9 1.5.9.9.1-.5-.9-.2-1.1.8-.7.9.3 1.6 1.1 1.6 1.8s.4.6.9-.3c.6-1 1.3-1.1 2.9-.2 2.7 1.4 3.5 1.4 2.5-.2-.4-.7.3-.5 1.8.4 1.4 1 3.8 1.5 5.7 1.3 1.8-.2 3.2.1 3.2.7s.5.7 1 .4c.6-.4 1.7-.1 2.5.5 1.1.9 1.5.9 1.5.1 0-.6.7-1.1 1.6-1.1.8 0 1.3.4.9.9-.3.5-.1 1.2.5 1.6.5.3 1 .2 1-.3s1-.8 2.3-.6c1.2.1 2.2.3 2.2.4 0 .1 1.1.3 2.5.4 1.4 0 3.1.5 3.9 1 .7.5 3.2.9 5.5 1.1 2.4.1 4.8.5 5.4.9.7.4 1.2.1 1.2-.6 0-.9.3-.9 1 .2.5.8 1 1.1 1 .6 0-.5.7-.3 1.5.4 1.1.9 1.5.9 1.5.1 0-.9.6-.9 2.2 0 1.3.7 4.4 1.3 7 1.3 2.5 0 4.4.4 4.1.9-.2.4 1.2.5 3.2.3 2.4-.3 3.8 0 4.1.9.6 1.4 2.1 1.5 4.2.2.7-.5 1.2-.3 1.2.3s.4.9.9.5c.5-.3 1.2-.1 1.6.5.4.7 1.2.7 2.5 0s2.1-.7 2.5.1c.4.6 1.3.8 2.1.5.8-.3 1.4 0 1.5.7 0 .9.2.8.6-.1.4-1 1-.9 3 .4 1.8 1.1 2.3 1.2 1.7.3-.6-1.1-.5-1.2.7-.3 1.4 1.1 2.1 1.3 7.9 1.6 1.7.1 3 .5 3 .8 0 .4 1.3.6 3 .5 1.7-.1 3 .2 3 .7 0 .5.9.4 2-.2 1.4-.7 2-.7 2 0 0 .5.3.9.8.9.4-.1.9-.1 1.2 0 .3.1 2.3.4 4.5.7 2.2.2 4.6.5 5.3.6.6.1 1.2.6 1.2 1.1 0 .5.5.5 1.3-.1 1.5-1.3 5.3-.9 5 .5-.2 1.1 2.7 1.1 4.5-.1.8-.4 1.1-.3 1 .5-.2.6.3 1.4 1.1 1.7.8.3 1.1 0 .7-.7-.4-.6-.3-1.1.3-1.1.5 0 1.2.4 1.5.9.4.5 1.7.8 3.1.6 1.4-.1 2.5.2 2.5.7 0 .5.6.6 1.3.1 2.2-1.3 3.9-1.2 3.3.3-.3.8-.1 1.4.4 1.4.6 0 1-.4 1-.8 0-.5.7-.9 1.5-.9s1.1.5.8 1c-.4.6.2.8 1.5.5 1.2-.3 3.8 0 5.8.7 2.1.7 5 1.1 6.6.8 1.5-.2 2.8 0 2.8.5s1.1.8 2.5.7c1.4-.2 2.5 0 2.5.3 0 .4 1.7.8 3.8.9 8.9.4 8.3-.1 11.9 10.7 4.2 12.4 13.2 31.3 20.6 43.1 17.8 28.7 46.7 54.3 77.6 69 4.3 2 6.1 3.4 5.8 4.5-.8 2.9-119 293.5-119.7 294.4-1.7 1.8-29.4-9.1-52.7-20.8-79.8-39.9-150.8-108.5-203.2-196.1-10.8-18-29.8-56.6-37.8-77-23-58.1-33.6-106.2-38.8-174.6l-.6-7.6 3.8.1c2.1 0 4.3.7 4.9 1.6zm715.5 115.1c1.1.5 3.6.9 5.7.8 2-.2 4.8.3 6.1 1 1.4.8 2.1.9 1.7.2-.5-.8 0-.8 1.7-.2 1.4.6 2.8.7 3.1.4.3-.4.6-.1.6.5s.6.9 1.4.6c.8-.3 1.7-.1 2.1.5.3.6 1.2 1.1 1.8 1.1.7 0 .6-.4-.3-1.1-1.2-.8-1-.9 1-.7 1.4.2 2.8.7 3.2 1.2.3.5 2.2 1 4.2 1 2 .1 3.6.5 3.6 1s.7.3 1.5-.4c1.1-.9 1.8-1 2.8-.1.8.6 1.7.8 2 .4.4-.3 1.3 0 2.2.7.8.7 1.5.9 1.5.4s.5-.2 1 .6c.6.9 1 1 1 .3 0-.8.9-.9 3.2-.2 1.8.5 4.7.9 6.3.9 1.7 0 3.6.5 4.3 1.2.9.9 1.2.9 1.2-.1 0-.9.6-1.1 1.8-.6 2.1.9 5.8 1.6 9.7 2 1.7.1 3.1.4 3.3.5.1.1 1.5.3 3 .4 1.6 0 3.6.7 4.5 1.4 1 .9 1.7 1 2.2.2.3-.5 1.1-1 1.6-1 .6 0 .7.4.4 1-.7 1.1-.2 1.2 6.5 1.5 4.9.3 8.4 1 10.2 2.1.6.4.8.3.5-.3-.3-.5 0-1 .8-1s1.2.4.8.9c-.3.6.3.9 1.3.8 1.1-.1 2.2-.1 2.7 0 1.9.6 3 .8 7.3.9 2.5 0 4.3.4 4.1.8-.3.5 1.6.9 4.1 1 5 .2 8.6.8 10.2 1.8.5.3 3.3.7 6.2.9 2.9.3 8.1 1.1 11.5 1.8 3.4.8 6 1.1 5.7.6-.6-.9 4.3 0 6.1 1.1.6.3 3.1.7 5.8.8 2.6.1 5.6.7 6.6 1.3 2.7 1.4 4.4 1.3 3.6-.3-.4-.6 0-.3.9.7 1.3 1.6 1.8 1.7 3.1.6 1.2-1 1.5-1 1.5 0 0 .7.7 1 1.5.7.8-.4 1.7-.2 2.1.4.3.6 1.8 1 3.2.9 5.4-.4 8.3 0 7.7 1-.3.5-.1 1 .4 1 .6 0 1.1-.6 1.1-1.3 0-.7.3-.8.8-.2.4.6 2.1 1.1 3.7 1.1 1.7.1 4.4.5 6 .9 1.7.5 5.1.9 7.8.9 2.6.1 4.7.5 4.7 1s.3.7.6.3c.4-.3 2.1.1 3.8 1 3 1.6 3.1 1.6 1.6-.3-1.4-1.8-1.4-1.8.5-.3 1.1.8 3.6 1.4 5.5 1.3 1.9-.1 4.1.4 4.9 1 1.2.9 1.3.8.6-.4-.7-1.3-.6-1.3.7-.2.8.7 2.3 1 3.2.6.9-.3 1.6-.1 1.6.6 0 .6.4.9.9.5.5-.3 1.2-.1 1.6.4.7 1.3 4.5 1 4.5-.4 0-.5.4-.4.9.3.5.8 2.5 1.4 4.5 1.4s3.6.5 3.6 1c0 .6.7.5 1.5-.2 1.3-1 1.8-1.1 2.8-.1.9 1 .8 1.1-.8.6-1.5-.5-1.7-.4-.6.3.8.6 2.2.9 3.2.7 1-.2 3.2 0 4.9.5 2.1.6 3 .5 3-.3 0-.6.7-.2 1.6.9.8 1 1.3 1.3.9.6-.8-1.5 1.1-1.6 2.1-.1.3.6 1.7.9 3 .6 1.3-.2 2.1 0 1.8.4-.3.5 0 .9.5.9.6 0 1.1-.6 1.2-1.3 0-.9.2-.9.6.1.2.6.9 1 1.4.6.5-.3.9-.1.9.3 0 .5.9.9 1.9.9 1.1 0 1.7-.4 1.5-.8-.3-.4 0-.8.5-.8.6 0 1.1.5 1.1 1.2 0 .6.3.8.7.5.3-.4 1.3-.1 2.1.6 1.2.9 1.4.9.9 0-.5-.8.1-.8 2 .2 1.8 1 3.1 1.1 3.9.4.8-.7 1.4-.6 1.9.1.4.6 1.4.9 2.2.6.9-.4 2.1-.2 2.7.2 1.8 1.4 4.8 2.3 4.1 1.3-.3-.6.6-.6 2.3-.1 1.6.4 4.1.6 5.6.3 1.6-.3 2.6-.1 2.6.6s-.5.9-1.2.5-.8-.3-.4.5c1.5 2.3-13.3 37.4-27.3 64.6-35.1 68.4-85.2 129-145.5 175.9-32.1 25.1-75.4 49.2-111.2 62-12.8 4.5-16 5.2-16.6 3.4C688.6 811.9 689 812.9 689 811.6c.1-.6 4.7-3.4 10.3-6.1 22.3-11 45.2-28.7 60.2-46.6 7.5-9.1 8.1-9.6 11.4-9.2 1.8.2 4.2.8 5.2 1.4z"/></svg>